<svg id="visual" viewBox="0 0 960 540" width="960" height="540" xmlns="http://www.w3.org/2000/svg" xmlns:xlink="http://www.w3.org/1999/xlink" version="1.1"><rect x="0" y="0" width="960" height="540" fill="#001220"></rect><g fill="#00152a"><circle r="27" cx="545" cy="304"></circle><circle r="7" cx="434" cy="281"></circle><circle r="21" cx="627" cy="21"></circle><circle r="24" cx="319" cy="43"></circle><circle r="9" cx="583" cy="79"></circle><circle r="12" cx="373" cy="365"></circle><circle r="21" cx="129" cy="110"></circle><circle r="15" cx="704" cy="334"></circle><circle r="10" cx="131" cy="448"></circle><circle r="13" cx="38" cy="514"></circle><circle r="25" cx="446" cy="44"></circle><circle r="15" cx="410" cy="439"></circle><circle r="22" cx="156" cy="399"></circle><circle r="24" cx="602" cy="285"></circle><circle r="13" cx="940" cy="251"></circle><circle r="16" cx="332" cy="425"></circle><circle r="15" cx="543" cy="379"></circle><circle r="17" cx="23" cy="281"></circle><circle r="15" cx="99" cy="298"></circle><circle r="10" cx="167" cy="510"></circle><circle r="9" cx="492" cy="148"></circle><circle r="23" cx="723" cy="235"></circle><circle r="15" cx="446" cy="347"></circle><circle r="8" cx="571" cy="225"></circle><circle r="15" cx="368" cy="484"></circle><circle r="11" cx="214" cy="10"></circle><circle r="8" cx="876" cy="68"></circle><circle r="15" cx="814" cy="493"></circle><circle r="12" cx="841" cy="163"></circle><circle r="11" cx="931" cy="476"></circle><circle r="6" cx="31" cy="25"></circle><circle r="17" cx="686" cy="103"></circle><circle r="7" cx="776" cy="425"></circle><circle r="6" cx="175" cy="156"></circle><circle r="16" cx="826" cy="407"></circle><circle r="14" cx="384" cy="14"></circle><circle r="16" cx="736" cy="499"></circle><circle r="23" cx="140" cy="256"></circle><circle r="9" cx="51" cy="426"></circle><circle r="14" cx="292" cy="125"></circle><circle r="10" cx="265" cy="434"></circle><circle r="23" cx="264" cy="363"></circle><circle r="15" cx="418" cy="158"></circle><circle r="17" cx="682" cy="195"></circle><circle r="24" cx="2" cy="70"></circle><circle r="9" cx="737" cy="376"></circle><circle r="13" cx="749" cy="289"></circle><circle r="12" cx="198" cy="288"></circle><circle r="19" cx="935" cy="81"></circle><circle r="25" cx="565" cy="513"></circle><circle r="8" cx="480" cy="486"></circle><circle r="25" cx="664" cy="402"></circle><circle r="14" cx="927" cy="374"></circle><circle r="18" cx="892" cy="424"></circle><circle r="22" cx="635" cy="124"></circle><circle r="10" cx="36" cy="347"></circle><circle r="13" cx="305" cy="278"></circle><circle r="19" cx="173" cy="57"></circle><circle r="10" cx="630" cy="188"></circle><circle r="14" cx="164" cy="342"></circle><circle r="9" cx="822" cy="307"></circle><circle r="13" cx="352" cy="193"></circle><circle r="23" cx="310" cy="530"></circle><circle r="16" cx="91" cy="371"></circle><circle r="23" cx="513" cy="61"></circle><circle r="24" cx="509" cy="243"></circle><circle r="6" cx="936" cy="163"></circle><circle r="11" cx="645" cy="472"></circle><circle r="18" cx="828" cy="218"></circle><circle r="12" cx="746" cy="139"></circle><circle r="13" cx="515" cy="531"></circle><circle r="20" cx="682" cy="280"></circle><circle r="8" cx="95" cy="189"></circle><circle r="19" cx="4" cy="151"></circle><circle r="10" cx="722" cy="47"></circle><circle r="19" cx="83" cy="46"></circle><circle r="21" cx="208" cy="418"></circle><circle r="10" cx="607" cy="358"></circle><circle r="23" cx="783" cy="538"></circle><circle r="13" cx="847" cy="359"></circle><circle r="14" cx="42" cy="217"></circle><circle r="14" cx="488" cy="301"></circle><circle r="9" cx="256" cy="526"></circle><circle r="6" cx="227" cy="219"></circle><circle r="6" cx="782" cy="182"></circle><circle r="15" cx="868" cy="276"></circle><circle r="19" cx="785" cy="86"></circle><circle r="11" cx="273" cy="188"></circle><circle r="10" cx="392" cy="237"></circle><circle r="15" cx="633" cy="538"></circle><circle r="25" cx="89" cy="529"></circle><circle r="9" cx="887" cy="198"></circle><circle r="16" cx="385" cy="71"></circle><circle r="23" cx="905" cy="538"></circle><circle r="7" cx="217" cy="113"></circle><circle r="15" cx="55" cy="117"></circle><circle r="23" cx="315" cy="330"></circle><circle r="7" cx="572" cy="7"></circle><circle r="17" cx="5" cy="472"></circle><circle r="11" cx="437" cy="108"></circle><circle r="7" cx="241" cy="65"></circle><circle r="8" cx="469" cy="432"></circle><circle r="15" cx="532" cy="431"></circle><circle r="9" cx="894" cy="322"></circle><circle r="21" cx="253" cy="267"></circle><circle r="24" cx="850" cy="8"></circle><circle r="7" cx="587" cy="456"></circle><circle r="10" cx="948" cy="320"></circle><circle r="7" cx="221" cy="483"></circle><circle r="17" cx="784" cy="32"></circle><circle r="9" cx="442" cy="213"></circle><circle r="6" cx="127" cy="17"></circle><circle r="11" cx="365" cy="310"></circle><circle r="16" cx="698" cy="536"></circle><circle r="16" cx="939" cy="18"></circle><circle r="11" cx="544" cy="170"></circle><circle r="16" cx="436" cy="534"></circle><circle r="17" cx="787" cy="252"></circle><circle r="17" cx="897" cy="128"></circle><circle r="25" cx="487" cy="3"></circle><circle r="20" cx="362" cy="134"></circle><circle r="18" cx="700" cy="452"></circle><circle r="25" cx="861" cy="466"></circle><circle r="22" cx="957" cy="528"></circle><circle r="12" cx="372" cy="538"></circle><circle r="14" cx="273" cy="5"></circle><circle r="8" cx="169" cy="209"></circle><circle r="7" cx="682" cy="8"></circle><circle r="12" cx="645" cy="321"></circle><circle r="8" cx="791" cy="364"></circle><circle r="15" cx="4" cy="399"></circle><circle r="11" cx="839" cy="105"></circle><circle r="20" cx="852" cy="529"></circle></g></svg>