<?xml version="1.0" standalone="no"?>
<!DOCTYPE svg PUBLIC "-//W3C//DTD SVG 20010904//EN"
 "http://www.w3.org/TR/2001/REC-SVG-20010904/DTD/svg10.dtd">
<svg version="1.0" xmlns="http://www.w3.org/2000/svg"
 width="215.000000pt" height="235.000000pt" viewBox="0 0 215.000000 235.000000"
 preserveAspectRatio="xMidYMid meet">
<metadata>
Created by potrace 1.16, written by Peter Selinger 2001-2019
</metadata>
<g transform="translate(0.000000,235.000000) scale(0.100000,-0.100000)"
fill="#eee" stroke="none">
<path d="M0 1395 c0 -649 3 -970 11 -1005 17 -78 63 -139 133 -175 l59 -30
326 -6 c298 -5 330 -7 377 -26 67 -26 116 -64 139 -107 l18 -33 32 41 c38 50
133 100 220 115 34 6 181 11 327 11 302 0 326 4 395 72 23 22 54 68 70 102
l28 61 3 968 2 967 -1070 0 -1070 0 0 -955z m1958 -57 l-3 -813 -27 -51 c-28
-53 -73 -97 -117 -117 -16 -7 -130 -13 -296 -17 l-271 -5 -68 -34 c-49 -24
-74 -43 -89 -68 -18 -32 -21 -33 -28 -17 -13 36 -86 92 -140 108 -41 13 -104
16 -289 16 -279 0 -318 7 -384 73 -24 24 -47 59 -54 83 -9 31 -12 239 -12 848
l0 806 890 0 890 0 -2 -812z"/>
<path d="M1108 1976 c-87 -32 -118 -75 -118 -163 0 -62 27 -106 81 -133 43
-22 69 -21 69 3 0 8 6 20 14 26 12 10 39 1 135 -45 67 -31 123 -55 126 -53 2
3 0 22 -5 43 -14 63 -55 95 -161 125 -97 28 -123 47 -99 76 21 25 92 17 105
-12 9 -21 17 -23 77 -23 l68 0 0 29 c0 39 -37 90 -83 114 -50 25 -158 32 -209
13z"/>
<path d="M310 1716 l0 -263 70 25 70 25 0 238 0 239 -70 0 -70 0 0 -264z"/>
<path d="M500 1915 l0 -64 78 -3 77 -3 3 -136 3 -137 49 16 c46 15 51 15 69
-2 20 -18 20 -18 23 120 l3 139 78 3 77 3 0 64 0 65 -230 0 -230 0 0 -65z"/>
<path d="M1467 1778 l2 -202 71 -32 70 -33 0 65 0 64 100 0 100 0 0 60 0 60
-100 0 -100 0 0 45 0 45 115 0 115 0 0 65 0 65 -187 0 -188 0 2 -202z"/>
<path d="M1159 1657 c-28 -67 -107 -133 -187 -157 -52 -16 -117 -1 -177 40
l-43 29 -248 -84 c-137 -46 -244 -84 -239 -84 39 -3 166 28 311 76 l170 56 39
-26 c56 -38 135 -54 193 -38 65 17 145 72 182 126 17 25 32 45 34 45 2 0 131
-61 287 -137 161 -77 314 -144 354 -154 38 -10 70 -17 71 -16 1 1 -69 36 -155
77 -86 41 -251 120 -368 176 l-211 102 -13 -31z"/>
<path d="M382 1308 c-9 -9 -12 -74 -12 -230 0 -205 1 -218 19 -228 12 -6 115
-10 265 -10 235 0 247 1 267 21 19 19 20 29 17 230 -2 173 -6 211 -18 219 -23
15 -523 13 -538 -2z m518 -218 l0 -190 -247 2 -248 3 -3 175 c-1 96 0 180 2
187 4 10 60 13 251 13 l245 0 0 -190z"/>
<path d="M970 1225 c0 -64 3 -85 13 -85 19 0 54 -41 62 -71 8 -34 -18 -86 -50
-101 -22 -10 -25 -18 -25 -60 0 -43 2 -49 19 -46 11 2 31 -8 45 -21 24 -23 26
-23 51 -7 28 18 30 28 15 57 -17 31 20 77 58 71 32 -4 36 -1 46 40 5 24 2 28
-29 38 -30 10 -35 16 -35 43 0 21 8 38 25 52 l25 20 -21 32 c-20 32 -21 32
-50 18 -26 -14 -31 -14 -55 1 -21 14 -25 24 -22 51 4 29 1 34 -21 39 -15 3
-32 7 -38 10 -10 2 -13 -18 -13 -81z"/>
<path d="M1385 1284 c-22 -7 -41 -14 -42 -14 -2 0 0 -19 3 -42 5 -38 2 -46
-21 -68 -26 -24 -27 -24 -70 -9 l-43 16 -23 -40 -22 -40 23 -19 c13 -10 29
-22 36 -26 9 -5 11 -20 7 -49 -4 -31 -11 -43 -27 -47 -46 -11 -57 -28 -46 -68
13 -47 21 -51 64 -39 33 9 37 7 61 -25 26 -34 26 -36 11 -74 l-15 -39 33 -20
c44 -28 51 -27 78 12 20 28 28 32 64 29 38 -3 42 -6 54 -43 14 -43 24 -46 74
-25 32 13 34 16 30 58 -4 38 -1 45 26 66 30 23 32 23 70 8 l40 -16 21 42 21
42 -22 18 c-13 10 -28 22 -35 26 -7 4 -10 23 -7 47 3 35 8 42 42 57 39 16 39
16 29 55 -14 51 -18 53 -62 43 -36 -8 -41 -6 -67 23 l-28 31 18 42 18 41 -41
23 -40 23 -19 -23 c-10 -13 -22 -29 -27 -37 -5 -10 -18 -12 -49 -7 -36 6 -43
11 -52 40 -15 44 -18 45 -65 28z m155 -210 c119 -71 41 -260 -92 -223 -88 24
-121 135 -61 202 36 39 105 49 153 21z"/>
<path d="M1421 1054 c-30 -21 -51 -71 -44 -107 13 -70 114 -101 170 -53 24 21
28 32 28 76 0 44 -4 55 -28 76 -33 29 -91 32 -126 8z m110 -33 c36 -36 37 -60
3 -100 -18 -22 -35 -31 -55 -31 -40 0 -79 40 -79 80 0 39 39 80 75 80 16 0 38
-12 56 -29z"/>
<path d="M547 817 c48 -18 48 -24 4 -32 -23 -4 -41 -11 -41 -16 0 -4 -44 -10
-97 -11 l-98 -3 0 -70 0 -70 198 -3 197 -2 0 40 c0 54 20 52 22 -2 l1 -43 7
45 7 45 1 -42 c1 -24 7 -43 12 -43 6 0 11 19 12 43 l1 42 7 -45 7 -45 1 43 c1
23 7 42 12 42 6 0 11 -19 12 -42 l1 -43 7 45 6 45 5 -45 6 -45 1 43 c1 23 6
42 11 42 6 0 12 -19 14 -42 l4 -43 1 43 c1 23 7 42 12 42 6 0 11 -19 12 -42
l1 -43 7 45 6 45 5 -45 6 -45 1 43 c1 23 7 42 12 42 6 0 11 -19 12 -42 l1 -43
7 45 7 45 1 -42 c2 -31 6 -43 17 -43 13 0 15 13 13 73 l-3 72 -85 3 c-48 1
-99 9 -117 17 -17 8 -38 15 -47 15 -9 0 -16 5 -16 10 0 6 8 10 18 10 9 0 24 5
32 10 10 7 -29 9 -120 9 -115 0 -130 -2 -103 -12z m31 -129 l3 -48 -120 0
-121 0 0 50 0 51 118 -3 117 -3 3 -47z"/>
</g>
</svg>
